<?xml version="1.0" encoding="utf-8"?>
<!-- Generator: Adobe Illustrator 16.0.0, SVG Export Plug-In . SVG Version: 6.00 Build 0)  -->
<!DOCTYPE svg PUBLIC "-//W3C//DTD SVG 1.1//EN" "http://www.w3.org/Graphics/SVG/1.1/DTD/svg11.dtd">
<svg version="1.1" id="Capa_1" xmlns="http://www.w3.org/2000/svg" xmlns:xlink="http://www.w3.org/1999/xlink" x="0px" y="0px"
	 width="515.643px" height="237.131px" viewBox="0 0 515.643 237.131" enable-background="new 0 0 515.643 237.131"
	 xml:space="preserve">
<g>
	<g>
		<path d="M86.03,213.921c-11.415,0-22.521-8.859-22.521-23.954c0-14.971,11.105-23.767,22.271-23.767
			c5.177,0,9.168,1.31,12.162,3.183v2.929c-3.492-2.18-7.233-3.554-12.224-3.554c-9.42,0-19.526,7.611-19.526,21.272
			c0,13.662,10.167,21.334,19.711,21.334c4.806,0,8.484-1.375,12.039-3.558v2.996C94.886,212.674,90.896,213.921,86.03,213.921z"/>
		<path d="M109.174,190.092c0-13.66,9.484-23.892,22.269-23.892c12.725,0,22.271,10.232,22.271,23.892
			c0,13.726-9.547,23.83-22.271,23.83C118.658,213.921,109.174,203.818,109.174,190.092z M150.968,190.092
			c0-13.038-9.045-21.333-19.525-21.333c-10.541,0-19.587,8.296-19.587,21.333c0,13.102,9.109,21.273,19.587,21.273
			C141.923,211.365,150.968,203.13,150.968,190.092z"/>
		<path d="M194.76,170.88l-13.974,42.356h-2.87l-13.783-46.348h2.805l12.476,42.542h0.062l13.97-42.542h2.684l14.035,42.542h0.062
			l12.352-42.542h2.809L211.6,213.236h-2.869L194.76,170.88z"/>
		<path d="M235.805,190.092c0-13.66,9.482-23.892,22.27-23.892c12.727,0,22.271,10.232,22.271,23.892
			c0,13.726-9.545,23.83-22.271,23.83C245.288,213.921,235.805,203.818,235.805,190.092z M277.6,190.092
			c0-13.038-9.043-21.333-19.525-21.333c-10.541,0-19.586,8.296-19.586,21.333c0,13.102,9.107,21.273,19.586,21.273
			C268.557,211.365,277.6,203.13,277.6,190.092z"/>
		<path d="M323.7,213.236h-3.682l-20.021-20.711h-0.439v20.711h-2.619v-46.348h10.043c10.418,0,15.094,5.675,15.094,12.785
			c0,7.984-5.613,12.852-15.342,12.852h-3.246L323.7,213.236z M306.358,190.092c9.234,0,13.035-4.242,13.035-10.418
			c0-6.05-3.99-10.229-12.66-10.229h-7.176v20.647H306.358z"/>
		<path d="M365.432,213.236l-23.893-23.083v23.083h-2.619v-46.348h2.619v23.079l23.766-23.079h3.494l-23.889,23.204l24.199,23.145
			H365.432z"/>
		<path d="M382.649,166.888h2.619v46.348h-2.619V166.888z"/>
		<path d="M439.352,213.236h-2.496l-29.004-42.046h-0.064v42.046h-2.621v-46.348h2.869l28.635,41.666h0.061v-41.666h2.621V213.236z"
			/>
		<path d="M478.211,211.239c4.432,0,7.676-0.81,10.918-2.308v-20.524h2.619v22.21c-3.74,1.995-8.42,3.304-13.537,3.304
			c-12.1,0-22.268-9.419-22.268-23.83c0-14.534,9.982-23.892,22.207-23.892c4.615,0,9.295,1.185,12.973,3.307v3.056
			c-4.051-2.432-8.357-3.681-13.096-3.681c-10.605,0-19.4,8.296-19.4,21.147C458.627,202.879,467.297,211.302,478.211,211.239z"/>
	</g>
	<polygon fill="#EB5B1F" points="71.523,150.548 111.191,55.57 150.859,150.548 	"/>
	<polygon fill="#89AB84" points="198.489,55.57 158.824,150.548 119.158,55.57 	"/>
	<polygon fill="#4E6DA2" points="103.227,55.57 63.561,150.548 23.895,55.57 	"/>
	<g>
		<path d="M252.803,150.545l-14.211-35.08h-44.939l-14.21,35.08h-3.584l38.535-95h3.457l38.539,95H252.803z M194.934,112.262h42.377
			l-21.125-52.491L194.934,112.262z M223.075,44.253h-3.203l-16.26-20.358h3.969L223.075,44.253z"/>
		<path d="M340.518,150.545h-3.328l-61.455-89.623h-0.127v89.623h-3.328v-95h3.713l61.068,89.11h0.129v-89.11h3.328V150.545z"/>
		<path d="M363.625,55.545h44.684v3.074h-41.355v42.122h39.051v3.072h-39.051v43.531h41.355v3.201h-44.684V55.545z"/>
		<path d="M426.047,115.976v-60.43h3.332v60.688c0,19.972,11.395,32.262,29.447,32.262c18.178,0,29.83-12.29,29.83-32.391v-60.56
			h3.326v60.43c0,21.894-12.928,35.721-33.156,35.721C438.725,151.697,426.047,137.87,426.047,115.976z"/>
	</g>
</g>
<g>
</g>
<g>
</g>
<g>
</g>
<g>
</g>
<g>
</g>
<g>
</g>
</svg>
